<svg xmlns="http://www.w3.org/2000/svg" xmlns:svg="http://www.w3.org/2000/svg" id="svg2" width="40" height="40" version="1.1" xml:space="preserve"><metadata id="metadata8"/><g id="layer1" transform="matrix(1.25,0,0,-1.25,27.6245,12.933375)"><g id="logo-group"><path id="circle" d="m 0,0 c 0,-8.285 -6.715,-15 -15,-15 -8.284,0 -15,6.715 -15,15 0,8.284 6.716,15 15,15 C -6.715,15 0,8.284 0,0" transform="translate(8.9004,-5.6533)" style="fill:#630;fill-opacity:1;fill-rule:nonzero;stroke:none"/><path id="heart" d="M 0,0 C -1.688,1.113 -3.292,0.27 -4.132,-0.707 -4.445,-1.071 -4.982,-1.5 -5.996,-1.5 c -1.014,0 -1.551,0.429 -1.864,0.793 -0.841,0.977 -2.445,1.82 -4.132,0.707 -1.983,-1.307 -1.406,-3.67 -0.828,-4.35 l 6.824,-9.239 6.824,9.239 C 1.405,-3.67 1.982,-1.307 0,0" style="fill:#fff;fill-opacity:1;fill-rule:nonzero;stroke:none"/></g></g></svg>